# xmcd
#
# Track frame offsets:
#	182
#	17582
#	37157
#	46232
#	66407
#	84632
#	98282
#	113132
#	137807
#	151007
#	168632
#	183857
#	195932
#	205907
#	230657
#	246307
#	263057
#	282032
#	298082
#	323507
#
# Disc length: 4480 seconds
#
# Revision: 13
# Processed by: cddbd v1.5.2PL0 Copyright (c) Steve Scherf et al.
# Submitted via: audiograbber 1.83.01
#
DISCID=12117e14
DTITLE=McNair, Sylvia and André Previn - Come rain or come shine - The Harold Arl
DTITLE=en songbook
DYEAR=1995
DGENRE=Jazz
TTITLE0=Over the rainbow
TTITLE1=Stormy weather
TTITLE2=Between the devil and the deep blue sea
TTITLE3=It was written in the stars
TTITLE4=As long as I live
TTITLE5=That old black magic
TTITLE6=The morning after
TTITLE7=A sleepin' bee
TTITLE8=Ac-cent-tchu-ate the positive
TTITLE9=Goose, never be a peacock
TTITLE10=I wonder what became of me
TTITLE11=It's only a paper moon
TTITLE12=Two ladies in the shade of the banana tree
TTITLE13=Cocoanut sweet
TTITLE14=Right as the rain
TTITLE15=I've got the world on a string
TTITLE16=Come rain or come shine
TTITLE17=This time the dream's on me
TTITLE18=Let's take a walk around the block
TTITLE19=Last night when we were young
EXTD=
EXTT0=From "The Wizard of Oz", arranged by E.Y. Harbug
EXTT1=oehlerFrom "Cotton Club Paradise - 22nd Edition", arranged by Ted K
EXTT2=from "Rhythmania", arranged by Ted Koehler
EXTT3=From "Casbah", arranged by Leo Robin
EXTT4=KoehlerFrom "The Cotton Club Parade - 24th Edition" arranged by Ted
EXTT5=From "Star Spangled Rhythm", arranged by Jonny Mercer
EXTT6=Arranged by Dory Langdon
EXTT7=Arlenfrom "House of Flowers", arranged by Truman Capote and Harold
EXTT8=From "Here Come the Waves", arranged by Jonny Mercer
EXTT9=From "Saratoga", arranged by Jonny Mercer
EXTT10=From "St. Louis Woman", arranged by Jonny Mercer
EXTT11=rgFrom "The Great Magoo", arranged by Billy Rose and E.Y. Harbu
EXTT12=Arlenfrom "House of Flowers", arranged by Truman Capote and Harold
EXTT13=From "Jamaica", arranged by E.Y. Harburg
EXTT14=From "Bloomer Girl", arranged by E.Y. Harburg
EXTT15=oehlerFrom "Cotton Club Paradise - 21st Edition", arranged by Ted K
EXTT16=From "St. Louis Woman", arranged by Jonny Mercer
EXTT17=From "Blues in The Night", arranged by Jonny Mercer
EXTT18=HarburgFrom "Life Begins at 8:40", arranged by Ira Gershwin and E.Y.
EXTT19=Arranged by E.Y. Harburg
PLAYORDER=
